<?xml version="1.0" encoding="UTF-8"?>
<svg id="Layer_1" data-name="Layer 1" xmlns="http://www.w3.org/2000/svg" viewBox="0 0 960 960">
  <defs>
    <style>
      .cls-1 {
        fill: #2e434e;
      }

      .cls-1, .cls-2 {
        stroke-width: 0px;
      }

      .cls-2 {
        fill: #fdb813;
        fill-rule: evenodd;
      }
    </style>
  </defs>
  <path class="cls-1" d="M844.07,660.76v-72.54h12.49v36.47l33.82-36.47h15.34l-29.55,31.19,30.87,41.35h-15.13l-24.27-32.64-11.07,11.6v21.04h-12.48ZM64.53,660.76h-12.45v-79.07h30.16c17.9,0,29.04,10.36,29.04,26v.23c0,17.4-13.64,26.58-30.61,26.58h-16.16v26.27h0ZM64.53,593.16v29.98h16.6c10.64,0,17.49-6.12,17.49-14.88v-.23c0-9.81-7-14.88-17.49-14.88h-16.6ZM123.98,660.76v-72.54h31.69c8.94,0,15.95,2.7,20.52,7.25,3.76,3.94,5.89,9.33,5.89,15.65,0,12.12-7.01,19.27-16.96,22.17l19.2,27.46h-14.73l-17.47-25.29h-15.64v25.29h-12.5ZM136.48,624.19h18.28c8.94,0,14.62-4.77,14.62-12.12,0-7.98-5.49-12.23-14.73-12.23h-18.18v24.36ZM230.3,662.01c-21.84,0-37.07-16.89-37.07-37.3s15.44-37.72,37.27-37.72,37.07,16.89,37.07,37.3-15.44,37.72-37.27,37.72ZM230.5,650.3c14.12,0,23.97-11.5,23.97-25.6s-10.05-26.01-24.17-26.01-23.97,11.5-23.97,25.6c0,14.3,10.06,26.02,24.17,26.02ZM305.13,661.29l-29.55-73.06h13.81l21.43,55.75,21.33-55.75h13.51l-29.55,73.06h-10.97ZM357.54,660.76v-72.54h12.49v72.54h-12.49ZM388,660.76v-72.54h26.5c22.34,0,37.78,15.65,37.78,36.06s-15.44,36.48-37.78,36.48h-26.5ZM400.49,649.16h14.01c14.93,0,24.68-10.26,24.68-24.45s-9.75-24.87-24.68-24.87h-14.01v49.32ZM495.55,661.91c-18.48,0-30.26-10.88-30.26-31.92v-41.76h12.49v41.24c0,13.47,6.8,20.72,17.98,20.72s17.87-6.84,17.87-20.21v-41.76h12.49v41.14c0,21.66-11.99,32.54-30.57,32.54h0ZM567.14,661.8c-10.87,0-21.12-3.84-29.65-11.6l7.51-9.12c6.8,6.01,13.61,9.43,22.44,9.43,7.72,0,12.6-3.63,12.6-9.12s-2.84-8.19-16.04-11.29c-15.13-3.73-23.66-8.29-23.66-21.66,0-12.65,10.15-21.24,24.27-21.24,10.36,0,18.59,3.21,25.79,9.12l-6.7,9.63c-6.4-4.87-12.79-7.46-19.29-7.46-7.31,0-11.58,3.84-11.58,8.6,0,5.8,3.25,8.29,16.86,11.6,15.03,3.73,22.85,9.22,22.85,21.24,0,13.79-10.47,21.87-25.4,21.87ZM643.29,660.74h-35.52v-78.43h34.4c8.81,0,15.66,2.47,19.96,6.87,3.34,3.4,5.06,7.57,5.06,12.76v.23c0,9.21-4.67,13.94-12.12,17.89,9.56,3.33,16.47,7.87,16.47,19.24v.23c0,13.7-11.01,21.22-28.26,21.22h0ZM619.99,593.44v22.46h19.39c8.94,0,15.37-3.63,15.37-11.46v-.23c0-6.78-5.38-10.77-14.37-10.77h-20.4ZM619.99,626.47v23.14h23.41c9.51,0,15.71-3.86,15.71-11.57v-.23c0-7.27-5.77-11.34-16.71-11.34h-22.41ZM679.58,660.76l31.28-73.06h11.58l31.28,73.06h-13.2l-7.21-17.51h-33.62l-7.31,17.51h-12.81ZM704.26,631.96h24.48l-12.29-29.02-12.19,29.02ZM764.87,660.76v-72.54h11.58l38.08,50.16v-50.16h12.29v72.54h-10.46l-39.2-51.61v51.61h-12.29Z"/>
  <path class="cls-2" d="M378.85,369.05l17.19-29.78h167.48l4.3,7.44,12.89,22.34h-201.86ZM402.62,327.88l17.21-29.8h119.9l17.21,29.8h-154.32ZM539.74,492.61h-97.96c-1.89,0-3.49.98-4.36,2.44l-11.93,20.67h-34.04l28.08-48.63c1.27-2.21,4.69-4,7.63-4l129.59.03-17.02,29.48h0ZM580.6,421.83l-17.27,29.91h-145.64c-1.86,0-3.42.92-4.3,2.31l-11.77,20.37h-34.04l28.08-48.62c1.27-2.21,4.69-4,7.63-4l177.3.03ZM393.64,410.45c-1.83,0-3.42.98-4.29,2.44l-11.63,20.14h-34.04l28.07-48.62c1.27-2.21,4.69-4,7.63-4l207.9.04,8.6,14.9-8.71,15.09h-193.53Z"/>
</svg>