<?xml version="1.0" encoding="utf-8"?>
<!-- Generator: Adobe Illustrator 28.0.0, SVG Export Plug-In . SVG Version: 6.00 Build 0)  -->
<svg version="1.1" id="Слой_1" xmlns="http://www.w3.org/2000/svg" xmlns:xlink="http://www.w3.org/1999/xlink" x="0px" y="0px"
	 viewBox="0 0 1000 624.8641357" enable-background="new 0 0 1000 624.8641357" xml:space="preserve">
<path id="XMLID_73_" fill="#ED171F" d="M195.8575897,0h249.529953c34.9864502,0,56.55896,28.4638214,48.4434204,63.3615608
	L377.5850525,561.6791382c-8.1491699,34.807373-43.059021,63.1849976-77.8650208,63.1849976H50.1173439
	c-34.911232,0-56.5118408-28.3776245-48.4191551-63.1849976l116.196022-498.3175659
	C126.0530243,28.4638214,160.9411011,0,195.8575897,0"/>
<path id="XMLID_72_" fill="#003366" d="M424.7218628,0h286.9571533c34.867981,0,19.1480103,28.4638214,10.940979,63.3615608
	L606.4024658,561.6791382c-8.1102905,34.807373-5.5648193,63.1849976-40.4664307,63.1849976H278.9884949
	c-34.9864655,0-56.6074677-28.3776245-48.4028931-63.1849976l116.135376-498.3175659
	C354.9685364,28.4638214,389.7651367,0,424.7218628,0"/>
<path id="XMLID_71_" fill="#006666" d="M700.3291626,0h249.5004272c34.9165039,0,56.6262207,28.4638214,48.4459229,63.3615608
	L882.036499,561.6791382c-8.1425781,34.807373-43.0912476,63.1849976-77.9699707,63.1849976H554.5916748
	c-34.8734741,0-56.5468445-28.3776245-48.3855591-63.1849976L622.4343872,63.3615608
	C630.5717163,28.4638214,665.4504395,0,700.3291626,0"/>
<path id="XMLID_58_" fill="#FFFFFF" d="M242.1735382,193.2807007c-26.841156,0.2827148-34.6753845,0-37.2263489-0.5731201
	c-1.0575409,4.5475464-19.1507721,87.9691467-19.1507721,87.9691467
	c-3.9099426,16.917511-6.8078156,28.9912109-16.3669434,36.6199036c-5.5149841,4.5662842-11.8841553,6.8293152-19.290741,6.8293152
	c-11.8491516,0-18.7685699-5.9252625-20.010437-17.1946716l-0.1212311-3.7589722c0,0,3.558609-22.608551,3.6501007-22.7727661
	c0,0,18.8964233-76.0028992,22.3139801-86.0315399c0.0901031-0.6001282,0.1843414-0.8045807,0.3323059-1.0872955
	c-37.043663,0.3256989-43.6172791,0-44.0344543-0.5731201c-0.1760712,0.7508392-1.2269897,5.4733734-1.2269897,5.4733734
	l-19.3337173,85.5581512l-1.7100143,7.3591919l-3.1629562,23.7333069c0,7.031311,1.3694458,12.7251282,4.1234894,17.6573181
	c8.9457703,15.5207825,34.1052856,17.724823,48.3841782,17.724823c18.342041,0,35.4667358-3.8562012,47.1246643-11.0084534
	c20.2165527-11.9042664,25.5819092-30.5436096,30.1928406-47.0844421l2.2682648-8.5487061
	c0,0,19.6015472-78.9035492,22.974472-89.2041473C241.9032288,193.767868,242.0040894,193.5634155,242.1735382,193.2807007
	 M308.7815247,256.9167175c-4.71698,0-13.348114,1.1514893-21.0707397,4.9699402
	c-2.8739014,1.4744263-5.5714722,3.0568848-8.3172302,4.7790222l2.4688416-9.1973267l-1.3603516-1.5391998
	c-16.3887024,3.3150482-20.1261597,3.8531952-35.2096405,5.9575043l-1.2123871,0.8475647
	c-1.9064789,14.5522461-3.3056946,25.5039673-9.9344025,54.2502136c-2.5132446,10.4163208-5.1127014,21.0908508-7.6917877,31.690155
	l0.6726074,1.3344421c15.7334747-0.7561035,20.3292542-0.7561035,33.8076782-0.5998535l1.15979-1.1705017
	c1.6240234-8.7991943,1.8970947-10.8120117,5.7612915-28.6280518c1.7017517-8.492218,5.3937378-27.0161133,7.256958-33.630249
	c3.4390564-1.5041809,6.666748-2.9463806,9.9076843-2.9463806c7.5749512,0,6.615509,6.5036316,6.3989258,9.2025757
	c-0.2893066,4.3808594-3.1428223,18.7796021-5.9737549,31.1950073l-1.8146973,7.8843689
	c-1.328125,5.9707336-2.7904358,11.702301-4.1036682,17.6275635l0.6015015,1.0655212
	c15.3052673-0.7561035,19.8611145-0.7561035,33.0097046-0.5998535l1.5177002-1.1705017
	c2.3732605-13.6939087,3.1012268-17.3991394,7.3098755-37.3329773l2.1095581-9.186615
	c4.1075134-17.9799805,6.1376953-27.0508423,3.0364685-34.4778137
	C323.8272705,258.9212646,315.9417725,256.9167175,308.7815247,256.9167175 M383.0421753,275.7202759
	c-8.0915527,1.5661926-13.2753601,2.5212097-18.3717957,3.3608093c-5.1328125,0.7750854-10.1135254,1.482666-18.0474854,2.5644531
	l-0.616394,0.5758972l-0.5284729,0.4439087c-0.8343506,5.8982544-1.3777161,10.8979797-2.4796143,16.898468
	c-1.0657959,6.13797-2.4272461,13.1690063-4.7172852,23.1601562c-1.7921448,7.6824036-2.6893005,10.3598633-3.7253418,13.0640259
	c-0.9605408,2.7259521-2.0558167,5.4006348-4.0121765,12.8865967l0.452179,0.6725769l0.4452515,0.6618652
	c7.3338623-0.3686829,12.0605164-0.5998535,17.0370789-0.6618652c4.9578247-0.0942383,10.0611877,0,17.9628906,0.0620117
	l0.7224731-0.4656677l0.7103577-0.704834c1.1746521-6.8213501,1.2876282-8.6349487,2.0128479-12.0255127
	c0.692688-3.5599976,1.8659668-8.4464722,4.8244629-21.5939941c1.3548279-6.2994385,2.9855042-12.3914185,4.403717-18.6988525
	c1.5485535-6.3826904,3.0378723-12.5606079,4.4869385-18.787323l-0.2355957-0.6351318L383.0421753,275.7202759z
	 M449.3834534,257.4683533c-7.5289307,0-25.4419556,0.7668152-39.4813843,13.7556152
	c-9.9492798,9.1755676-14.608429,21.8386841-17.5038452,33.8856812
	c-2.789032,12.4021606-6.1217346,34.5907898,14.3408813,42.9000549c6.4000244,2.6424561,15.4210205,3.3905334,21.2413025,3.3905334
	c15.0338745,0,30.3824463-4.1438904,41.8590393-16.3738403c8.9752502-9.8806763,12.9978943-24.5403748,14.3610229-30.7185669
	c4.6671448-20.2003174,1.1528625-29.5480957-3.3742981-35.2904053
	C473.8918762,260.3259888,461.9228516,257.4683533,449.3834534,257.4683533 M449.8692322,302.8951111
	c-0.6067505,3.2855835-3.5870056,15.9621887-7.6394043,21.3195496c-2.7540588,3.9879456-6.1176147,6.3881836-9.8726807,6.3881836
	c-1.0250244,0-7.4911804,0-7.6027832-9.5874939c-0.1427307-4.7277527,0.8676758-9.6575012,2.1539001-14.9531555
	c3.34729-15.2598267,7.5382996-28.0896301,17.9276428-28.0896301
	C452.9555969,277.9725647,453.4909668,287.5895386,449.8692322,302.8951111 M806.3915405,349.6403503
	c2.2817383-13.5401611,4.5150146-26.6904297,10.5050659-52.7512512c2.8143921-12.4129028,5.8389893-24.8203125,8.8796387-37.1067505
	l-0.5596313-1.3829651c-16.3765869,2.9866333-20.6819458,3.6297302-36.3641968,5.9440308l-1.2754517,0.9175415
	c-0.161499,1.2432556-0.3174438,2.4459839-0.4733887,3.6434937c-2.4650269-3.960907-6.0492554-7.3569641-11.5708618-9.4907837
	c-6.8778076-2.644928-23.3886108,0.9768066-37.4564209,13.7854004
	c-9.8484497,9.1298218-14.6704712,21.7069702-17.4366455,33.7322083
	c-2.798645,12.1492004-6.1729736,34.3730774,14.2937622,42.3216553c6.4578857,2.6909485,12.3187256,3.4955444,18.1147461,3.2693176
	c6.2104492-0.3361511,11.9794922-3.4522705,17.3181152-7.9298401c-0.489624,1.8458557-0.9633179,3.6702271-1.4636841,5.5163574
	l0.9633179,1.1300049c14.6918945-0.5866089,19.18573-0.5866089,35.0616455-0.5381165L806.3915405,349.6403503z
	 M782.3405151,296.7141418c-0.5595703,2.5402222-1.1514893,5.2149048-1.8510742,8.2312927
	c-1.022522,4.4425659-2.1688232,8.8421631-3.2720947,13.2604675c-1.1140137,2.9951477-2.4057617,5.8178101-3.8319702,7.6771851
	c-2.7769165,3.8154297-9.0895996,6.143219-12.8082886,6.143219c-1.0117798,0-7.3781738,0-7.6204224-9.4772949
	c-0.0647583-4.6040344,0.9418335-9.4770203,2.0665894-14.850647c3.503479-14.8831482,7.5559082-27.6539917,18.001709-27.6539917
	C779.6443481,280.0443726,783.0941162,286.1768494,782.3405151,296.7141418 M569.4718018,256.9167175
	c-4.7142944,0-13.3734741,1.1514893-21.0908813,4.9699402c-2.7606201,1.4744263-5.5753174,3.0568848-8.2770386,4.7790222
	l2.4702759-9.1973267l-1.3399658-1.5391998c-16.4517822,3.3150482-20.0413208,3.8531952-35.2352905,5.9575043l-1.1867676,0.8475647
	c-1.8417053,14.5522461-3.3660278,25.5039673-9.9062805,54.2502136c-2.4917297,10.4163208-4.9914551,21.0908508-7.6540222,31.690155
	l0.7830811,1.3344421c15.4764099-0.7561035,20.1840515-0.7561035,33.6046143-0.5998535l1.2377319-1.1705017
	c1.6144409-8.7991943,1.9051514-10.8120117,5.5808716-28.6280518c1.8243408-8.492218,5.6290283-27.0161133,7.4696655-33.630249
	c3.3258057-1.5041809,6.6463623-2.9463806,9.9669189-2.9463806c7.3944702,0,6.5548706,6.5036316,6.2911987,9.2025757
	c-0.3551636,4.3808594-3.0568848,18.7796021-5.9575195,31.1950073l-1.8243408,7.8843689
	c-1.4207153,5.9707336-2.8898926,11.702301-4.1816406,17.6275635l0.5596313,1.0655212
	c15.4292603-0.7561035,19.998291-0.7561035,33.0758057-0.5998535l1.6199341-1.1705017
	c2.3035278-13.6939087,2.9331665-17.3991394,7.2076416-37.3329773l1.996582-9.186615
	c4.2298584-17.9799805,6.2857056-27.0508423,3.2073364-34.4778137
	C584.5097656,258.9212646,576.5595703,256.9167175,569.4718018,256.9167175 M741.7734985,238.6270142
	c1.0655518-4.187149,1.7921143-9.2430725,1.7921143-14.1780396c0-6.6598663-1.2647095-12.9645538-5.05896-18.1039734
	c-9.7191772-13.4732056-28.7705078-13.6374207-51.039856-13.7503967l-10.8602295,0.1129761
	c-28.3937988,0.3256836-39.6629639,0.1642151-44.414917-0.4439087c-0.3929443,2.1043243-1.2272949,5.804306-1.2272949,5.804306
	l-10.0744019,47.1111603c0,0-24.2606812,99.9919128-25.4177246,104.6684265
	c24.6751099-0.2744446,34.9217529-0.2744446,39.0333862,0.1614685c1.0762939-4.7222595,6.8133545-32.7124023,6.8133545-32.7124023
	s4.8809204-20.4075317,5.1663818-21.150116c0,0,1.6629639-2.0987854,3.2020874-3.0138855h2.2603149
	c21.2952881,0,45.4429932,0,64.3810425-13.7906189C729.0889282,269.7680054,737.861084,255.6949463,741.7734985,238.6270142
	 M701.6853638,241.5356445c-2.3464966,10.4083405-9.052124,19.2720032-17.7487793,23.4078979
	c-7.2977905,3.63797-16.0377197,3.9338989-25.1002808,3.9338989h-5.8982544l0.4466553-2.2817688
	c0,0,10.8494873-46.9849548,10.7902222-46.8854828l0.3389282-2.3542328l0.2314453-1.86763l4.3108521,0.4144135
	c0,0,22.1563721,1.8863678,22.7374878,1.8863678C700.5551147,221.222641,704.2037964,230.0915375,701.6853638,241.5356445
	 M934.5455322,258.2351685l-1.2377319-1.4206848c-16.2310791,3.3070679-19.1642456,3.8369141-34.0606079,5.7717896
	l-1.0762939,1.0602722c-0.0432739,0.1531982-0.0432739,0.4304199-0.1722412,0.6968689l-0.0646973-0.266449
	c-11.1401978,25.6221313-10.7150269,20.0305481-19.7616577,40.1338501c-0.1559448-0.8742981-0.1559448-1.5256653-0.1559448-2.429718
	l-2.2280273-43.545929l-1.4047241-1.4206848c-16.9577637,3.3070679-17.4203491,3.8369141-33.0325928,5.7717896l-1.3132324,1.0602722
	c-0.0270386,0.5918884-0.1022339,1.1972351-0.1669922,1.7086487l0.1399536,0.271698
	c1.8461304,9.9884033,1.4854736,7.7333679,3.3635864,23.5423584c0.9525146,7.7198486,2.1958008,15.5637207,3.1105957,23.1356506
	c1.506897,12.8408203,2.4109497,19.1184998,4.2946167,38.6729431
	c-10.618042,17.3423767-13.1205444,23.9914856-23.1626587,39.3050232l0.0214844,0.0970154l-7.2008057,11.3903809
	c-0.8932495,1.1839905-1.5983887,1.9453125-2.6746826,2.2575073c-1.1300049,0.5921326-2.6317139,0.7966003-4.6605225,0.7966003
	h-4.0201416l-5.9038086,19.5759277l20.2998047,0.3094177c11.9367676-0.051239,19.3850098-5.5863342,23.4266357-13.0640259
	l12.7438354-21.7824707h-0.15625l1.2862549-1.5554199C869.319397,369.878418,934.5455322,258.2351685,934.5455322,258.2351685
	 M383.2411194,250.4318085c-7.4360657-4.42659-20.2297668-3.0623779-29.0005798,3.0163727
	c-8.7625122,5.9654846-9.8349304,14.2290039-2.4580994,18.6206055c7.3233643,4.3565979,20.3576355,3.0783691,29.0369263-2.994873
	C389.4328308,262.9951782,390.6342163,254.6266632,383.2411194,250.4318085"/>
</svg>
